<svg xmlns="http://www.w3.org/2000/svg" width="123" height="29" viewBox="0 0 123 29">
  <g id="Group_11" data-name="Group 11" transform="translate(672 -562)">
    <rect id="Rectangle_31" data-name="Rectangle 31" width="123" height="29" transform="translate(-672 562)" fill="#fff" opacity="0"/>
    <text id="Log" transform="translate(-632 583)" fill="#fff" font-size="15" font-family="SegoeUI, Segoe UI"><tspan x="0" y="0">Log</tspan></text>
    <path id="task-list" d="M16.319,0H.663A.663.663,0,0,0,0,.663V16.319a.663.663,0,0,0,.663.663H16.319a.663.663,0,0,0,.663-.663V.663A.663.663,0,0,0,16.319,0Zm-.663,15.656H1.327V1.327H15.656ZM2.715,4.55a.663.663,0,0,1,.938-.938l.43.43L5.5,2.623a.663.663,0,0,1,.938.938L4.552,5.449a.663.663,0,0,1-.938,0Zm5.113-.514a.663.663,0,0,1,.663-.663H13.8a.663.663,0,1,1,0,1.327H8.491a.663.663,0,0,1-.663-.663ZM2.715,13.461a.663.663,0,0,1,.938-.938l.43.43L5.5,11.534a.663.663,0,0,1,.938.938L4.552,14.36a.663.663,0,0,1-.938,0Zm5.113-.514a.663.663,0,0,1,.663-.663H13.8a.663.663,0,0,1,0,1.327H8.491a.663.663,0,0,1-.663-.663ZM2.715,9.006a.663.663,0,0,1,.938-.938l.43.43L5.5,7.078a.663.663,0,0,1,.938.938L4.552,9.9a.664.664,0,0,1-.938,0Zm5.113-.514a.663.663,0,0,1,.663-.663H13.8a.663.663,0,0,1,0,1.327H8.491a.663.663,0,0,1-.663-.663Zm0,0" transform="translate(-659 568.017)" fill="#fff"/>
  </g>
</svg>
