<svg xmlns="http://www.w3.org/2000/svg" width="123" height="29" viewBox="0 0 123 29">
  <g id="Group_9" data-name="Group 9" transform="translate(672 -515)">
    <g id="Rectangle_30" data-name="Rectangle 30" transform="translate(-672 515)" fill="#fff" stroke="#fff" stroke-width="1" opacity="0">
      <rect width="123" height="29" stroke="none"/>
      <rect x="0.5" y="0.5" width="122" height="28" fill="none"/>
    </g>
    <g id="Group_5" data-name="Group 5" transform="translate(4 47)">
      <text id="Store" transform="translate(-636 489)" fill="#fff" font-size="15" font-family="SegoeUI, Segoe UI"><tspan x="0" y="0">Store</tspan></text>
    </g>
    <g id="shop" transform="translate(-662 491.077)">
      <g id="Group_7" data-name="Group 7" transform="translate(0 31.05)">
        <path id="Path_4" data-name="Path 4" d="M252.478,263.75h-2.859a1.42,1.42,0,0,0-1.419,1.419v2.193a1.42,1.42,0,0,0,1.419,1.419h2.859a1.42,1.42,0,0,0,1.419-1.419v-2.193A1.42,1.42,0,0,0,252.478,263.75Zm.387,3.612a.388.388,0,0,1-.387.387h-2.859a.388.388,0,0,1-.387-.387v-2.193a.388.388,0,0,1,.387-.387h2.859a.388.388,0,0,1,.387.387Z" transform="translate(-237.528 -253.744)" fill="#fff"/>
        <path id="Path_5" data-name="Path 5" d="M21.044,37.07a.479.479,0,0,0-.069-.254l-3.13-5.5a.519.519,0,0,0-.447-.262H3.642a.51.51,0,0,0-.447.262l-3.126,5.5A.522.522,0,0,0,0,37.07,3.018,3.018,0,0,0,1.806,39.83v9.077a.518.518,0,0,0,.516.516h16.4a.518.518,0,0,0,.516-.516V39.895a.227.227,0,0,0,0-.056A3.027,3.027,0,0,0,21.044,37.07Zm-17.1-4.984H17.1l2.447,4.3H1.5Zm11.034,5.332a1.983,1.983,0,0,1-3.9,0Zm-5,0a1.986,1.986,0,0,1-3.909,0Zm-8.909,0H4.975a1.986,1.986,0,0,1-3.909,0Zm7.6,10.973H5.7V42.823a.735.735,0,0,1,.735-.735h1.5a.735.735,0,0,1,.735.735v5.568Zm9.533,0H9.7V42.823a1.77,1.77,0,0,0-1.767-1.767h-1.5a1.77,1.77,0,0,0-1.767,1.767V48.4H2.838V40.084c.06,0,.12,0,.181,0a3.015,3.015,0,0,0,2.5-1.333,3.016,3.016,0,0,0,5.005,0,3.008,3.008,0,0,0,5,0,3.015,3.015,0,0,0,2.5,1.333c.06,0,.116,0,.176,0v8.307Zm-.176-9.335a1.982,1.982,0,0,1-1.952-1.634h3.909A1.994,1.994,0,0,1,18.025,39.056Z" transform="translate(0 -31.05)" fill="#fff"/>
      </g>
    </g>
  </g>
</svg>
