<svg xmlns="http://www.w3.org/2000/svg" width="303" height="303" viewBox="0 0 303 303">
  <g id="income-icon" transform="translate(-709 450)">
    <g id="Ellipse_8" data-name="Ellipse 8" transform="translate(709 -450)" fill="#293973" stroke="#707070" stroke-width="1">
      <circle cx="151.5" cy="151.5" r="151.5" stroke="none"/>
      <circle cx="151.5" cy="151.5" r="151" fill="none"/>
    </g>
    <g id="profit" transform="translate(762.501 -396)">
      <path id="Path_313" data-name="Path 313" d="M210.314,353.629a3.814,3.814,0,1,0-3.814-3.814A3.816,3.816,0,0,0,210.314,353.629Zm0,0" transform="translate(-127.426 -214.025)" fill="#fff"/>
      <path id="Path_314" data-name="Path 314" d="M1.617,148.4l45.771,45.771a3.813,3.813,0,0,0,5.394,0L77.956,169a3.813,3.813,0,0,0,0-5.394l-1.117-1.117h54.982a19.029,19.029,0,0,0,12.991-5.109l46.273-43.368A14.726,14.726,0,0,0,173.26,90.734l-10.273,6.741c-.07-20.676-12.566-42.725-29.768-52.651a11.462,11.462,0,0,0-5.055-18.407c-.188-.063-.375-.118-.563-.176L137.419,8.6a3.814,3.814,0,0,0-2.268-5.517,78.207,78.207,0,0,0-43.5,0A3.813,3.813,0,0,0,89.386,8.6L99.2,26.241c-.191.06-.381.116-.572.179a11.442,11.442,0,0,0-5.036,18.4C76.138,54.895,63.816,77.17,63.816,97.646c0,.559.013,1.11.031,1.657a46.87,46.87,0,0,0-18.525,9.937L33.731,119.381l-1.547-1.547a3.813,3.813,0,0,0-5.394,0L1.617,143.009a3.813,3.813,0,0,0,0,5.394ZM98.463,9.224a70.74,70.74,0,0,1,29.881,0l-8.5,15.268a46.505,46.505,0,0,0-12.881,0Zm2.551,24.443a39.469,39.469,0,0,1,24.768,0,3.816,3.816,0,0,1-.954,7.435,37.313,37.313,0,0,0-22.851-.007h0a3.811,3.811,0,0,1-.961-7.424Zm2.11,15.086a29.761,29.761,0,0,1,20.1-.161c17.722,6.094,32.14,28.1,32.14,49.054a36.714,36.714,0,0,1-.332,5.051l-18.334,12.028a15.168,15.168,0,0,0-11.848-5.636h-7.629v-4.47a11.442,11.442,0,0,0-3.814-22.23,3.814,3.814,0,1,1,0-7.629,6.129,6.129,0,0,1,4.126,1.994,3.814,3.814,0,1,0,5.3-5.482,14.719,14.719,0,0,0-5.616-3.512V63.317a3.814,3.814,0,0,0-7.629,0v4.47a11.442,11.442,0,0,0,3.814,22.23,3.814,3.814,0,0,1,0,7.629c-1.63,0-3.388-1.025-4.953-2.886a3.814,3.814,0,0,0-5.839,4.909,15.812,15.812,0,0,0,6.977,4.968v4.452h-1.269c-1.874,0-2.716-1.222-4.036-2.076a46.793,46.793,0,0,0-32.834-9.126c0-.08,0-.159,0-.241,0-20.661,14.211-42.593,31.678-48.893ZM50.348,114.978A39.222,39.222,0,0,1,99.7,113.114c.973.569,3.682,3.6,8.615,3.6h16.528a7.629,7.629,0,1,1,0,15.257h-26.7a3.814,3.814,0,1,0,0,7.629h26.7a15.243,15.243,0,0,0,15.034-17.844l37.456-24.575a7.1,7.1,0,0,1,8.546,11.251L139.609,151.8a11.411,11.411,0,0,1-7.788,3.059H69.21L39.139,124.787ZM29.488,125.925,69.866,166.3,50.085,186.083,9.707,145.706Zm0,0" fill="#fff"/>
    </g>
  </g>
</svg>
