<svg xmlns="http://www.w3.org/2000/svg" width="303" height="303" viewBox="0 0 303 303">
  <g id="store" transform="translate(-709 450)">
    <path id="Path_331" data-name="Path 331" d="M151.5,0A151.5,151.5,0,1,1,0,151.5,151.5,151.5,0,0,1,151.5,0Z" transform="translate(709 -450)" fill="#f2774c"/>
    <g id="shop" transform="translate(756 -421.05)">
      <g id="Group_332" data-name="Group 332" transform="translate(0 31.05)">
        <path id="Path_315" data-name="Path 315" d="M290.737,263.75H262.308A14.122,14.122,0,0,0,248.2,277.858v21.8a14.122,14.122,0,0,0,14.108,14.108h28.429a14.122,14.122,0,0,0,14.108-14.108v-21.8A14.122,14.122,0,0,0,290.737,263.75Zm3.848,35.911a3.859,3.859,0,0,1-3.848,3.848H262.308a3.859,3.859,0,0,1-3.848-3.848v-21.8a3.859,3.859,0,0,1,3.848-3.848h28.429a3.859,3.859,0,0,1,3.848,3.848Z" transform="translate(-142.093 -164.269)" fill="#fff"/>
        <path id="Path_316" data-name="Path 316" d="M209.221,90.9a4.762,4.762,0,0,0-.684-2.522L177.415,33.658a5.157,5.157,0,0,0-4.446-2.608H36.21a5.07,5.07,0,0,0-4.446,2.608L.684,88.379A5.186,5.186,0,0,0,0,90.9a30.01,30.01,0,0,0,17.955,27.446v90.247a5.145,5.145,0,0,0,5.13,5.13H186.093a5.145,5.145,0,0,0,5.13-5.13V118.988a2.258,2.258,0,0,0-.043-.556A30.094,30.094,0,0,0,209.221,90.9ZM39.2,41.353H169.976L194.3,84.146H14.92ZM148.9,94.364a19.717,19.717,0,0,1-38.818,0Zm-49.719,0a19.742,19.742,0,0,1-38.86,0Zm-88.579,0h38.86a19.742,19.742,0,0,1-38.86,0Zm75.583,109.1h-29.5V148.1a7.307,7.307,0,0,1,7.31-7.31h14.92a7.307,7.307,0,0,1,7.31,7.31v55.362Zm94.778,0H96.445V148.1a17.6,17.6,0,0,0-17.571-17.571H63.955A17.6,17.6,0,0,0,46.384,148.1v55.4H28.215V120.869c.6.043,1.2.043,1.8.043a29.972,29.972,0,0,0,24.881-13.253,29.982,29.982,0,0,0,49.762,0,29.9,29.9,0,0,0,49.676,0,29.972,29.972,0,0,0,24.881,13.253c.6,0,1.154-.043,1.753-.043v82.594Zm-1.753-92.812A19.706,19.706,0,0,1,159.8,94.406h38.86A19.827,19.827,0,0,1,179.211,110.652Z" transform="translate(0 -31.05)" fill="#fff"/>
      </g>
    </g>
  </g>
</svg>
