<svg xmlns="http://www.w3.org/2000/svg" width="123" height="29" viewBox="0 0 123 29">
  <g id="user" transform="translate(674 -432)">
    <g id="Group_16" data-name="Group 16" transform="translate(-2 -39)">
      <rect id="Rectangle_29" data-name="Rectangle 29" width="123" height="29" transform="translate(-672 471)" fill="#fff" opacity="0"/>
      <g id="Group_4" data-name="Group 4" transform="translate(4 3)">
        <text id="User-2" data-name="User" transform="translate(-636 489)" fill="#fff" font-size="15" font-family="SegoeUI, Segoe UI"><tspan x="0" y="0">User</tspan></text>
      </g>
    </g>
    <g id="users" transform="translate(-660.001 413.301)">
      <g id="Group_17" data-name="Group 17" transform="translate(0.001 25.494)">
        <path id="Path_23" data-name="Path 23" d="M14.506,33.282a4.465,4.465,0,0,0-5.556-6.97,4.467,4.467,0,0,0-5.563,6.97A6.346,6.346,0,0,0,0,38.921v1.917a.639.639,0,0,0,.639.639H17.254a.639.639,0,0,0,.639-.639V38.921A6.346,6.346,0,0,0,14.506,33.282Zm-3-6.5a3.191,3.191,0,0,1,1.313,6.1c-.049.022-.1.043-.148.064a3.132,3.132,0,0,1-.486.151c-.032.007-.064.011-.1.017a3.2,3.2,0,0,1-.562.057c-.085,0-.171-.006-.256-.014a.483.483,0,0,1-.1-.006,3.228,3.228,0,0,1-1.045-.308c-.012-.006-.026-.005-.038-.01-.064-.031-.128-.058-.185-.092.005-.006.008-.013.013-.02a4.483,4.483,0,0,0,.684-1.247l.02-.054a4.507,4.507,0,0,0,.169-.658c.006-.033.01-.064.015-.1a4.079,4.079,0,0,0,0-1.373c-.005-.033-.01-.064-.015-.1a4.508,4.508,0,0,0-.169-.658l-.02-.054a4.484,4.484,0,0,0-.684-1.247c-.005-.006-.008-.013-.013-.02A3.175,3.175,0,0,1,11.5,26.78ZM3.2,29.975a3.187,3.187,0,0,1,5.393-2.308c.037.036.073.072.109.109a3.285,3.285,0,0,1,.3.367c.028.04.054.082.08.123a3.144,3.144,0,0,1,.234.431c.016.036.028.074.042.11a3.124,3.124,0,0,1,.158.511c0,.019.006.038.01.058a3.008,3.008,0,0,1,0,1.2c0,.02-.005.039-.01.058a3.116,3.116,0,0,1-.158.511c-.014.036-.026.073-.042.11a3.155,3.155,0,0,1-.234.431c-.026.041-.052.083-.08.123a3.279,3.279,0,0,1-.3.367c-.036.037-.072.073-.109.109a3.19,3.19,0,0,1-.882.6c-.052.024-.1.045-.157.064a3.213,3.213,0,0,1-.474.147c-.04.009-.082.014-.123.021a3.171,3.171,0,0,1-.526.053h-.07a3.167,3.167,0,0,1-.526-.053c-.041-.007-.082-.012-.123-.021a3.212,3.212,0,0,1-.474-.147l-.157-.064A3.2,3.2,0,0,1,3.2,29.975ZM11.5,40.2H1.279V38.921a5.08,5.08,0,0,1,3.4-4.816,4.459,4.459,0,0,0,3.428,0,5.135,5.135,0,0,1,.622.275c.133.068.256.146.383.225.083.052.167.1.247.159.123.088.24.183.354.281.073.064.146.128.215.192.105.1.2.205.3.313.068.078.135.157.2.239.084.107.164.217.238.33.064.1.121.2.177.3s.123.22.176.334.1.24.147.362c.04.106.083.212.116.319.045.148.076.3.107.455.019.091.044.18.058.272a5.285,5.285,0,0,1,.058.764V40.2Zm5.112,0H12.781V38.921c0-.2-.011-.4-.029-.594-.005-.058-.014-.114-.02-.172-.017-.141-.037-.281-.064-.42q-.017-.089-.036-.178-.046-.213-.107-.423c-.013-.046-.026-.093-.04-.138a6.332,6.332,0,0,0-.77-1.615l-.025-.036q-.165-.245-.352-.473l0-.006a5.8,5.8,0,0,0-.412-.458h.026a4.523,4.523,0,0,0,.544.038h.035a4.52,4.52,0,0,0,.5-.033c.052-.006.1-.016.157-.024q.2-.031.4-.081c.038-.01.076-.019.114-.029a4.351,4.351,0,0,0,.511-.174,5.08,5.08,0,0,1,3.4,4.817V40.2Z" transform="translate(-0.001 -25.494)" fill="#fff"/>
      </g>
    </g>
  </g>
</svg>
